<svg id="Group_9592" data-name="Group 9592" xmlns="http://www.w3.org/2000/svg" width="288.637" height="36.187" viewBox="0 0 288.637 36.187">
  <path id="Path_1326" data-name="Path 1326" d="M391.6,464.484h10.983a8.512,8.512,0,0,1-8.6,6.276c-6.225,0-9.971-3.846-9.971-10.426,0-6.174,3.7-10.122,9.262-10.122,3.239,0,5.669,1.266,6.985,3.645h9.565c-1.872-7.288-8.047-11.641-16.55-11.641-10.629,0-18.068,7.49-18.068,18.119s7.49,18.069,18.119,18.069a17.4,17.4,0,0,0,17.106-12.249v-8.047H391.6Z" transform="translate(-375.202 -442.215)" fill="#fff"/>
  <path id="Path_1327" data-name="Path 1327" d="M459.74,453.976c0-6.175-4.353-11.185-13.058-11.185H432.157v35.53h8.654V464.908h2.076l7.389,13.413h9.768l-8.2-14.07A10.342,10.342,0,0,0,459.74,453.976Zm-13.564,4.808h-5.365v-8.806h5.365c3.239,0,4.757,1.721,4.757,4.352C450.934,457.114,449.415,458.784,446.176,458.784Z" transform="translate(-392.123 -442.386)" fill="#fff"/>
  <path id="Path_1328" data-name="Path 1328" d="M580.14,464.807l-14.475-22.016H557.01V478.32h8.655V456.405L580.14,478.32h8.654V442.791H580.14Z" transform="translate(-429.217 -442.386)" fill="#fff"/>
  <path id="Path_1329" data-name="Path 1329" d="M623.685,449.725H633.1v28.6h8.655v-28.6h9.414v-6.934H623.685Z" transform="translate(-449.026 -442.386)" fill="#fff"/>
  <path id="Path_1330" data-name="Path 1330" d="M752.609,442.791H742.79l-6.276,10.73-7.136-10.73H719.306l11.641,17.461L719.559,478.32h9.819l6.377-10.881,7.238,10.881h10.071l-11.741-17.613Z" transform="translate(-477.435 -442.386)" fill="#fff"/>
  <rect id="Rectangle_852" data-name="Rectangle 852" width="8.655" height="35.529" transform="translate(279.982 0.405)" fill="#fff"/>
  <path id="Path_1331" data-name="Path 1331" d="M506.483,456.911H487.8v-7.187h13.177v-6.934H479.1V478.32h21.877v-6.934H487.8v-7.794h18.68V478.32h21.763v-6.934H515.138v-2.445h-.006v-5.349h13.115v-6.681H515.132v-3.276h.006v-3.911h13.108v-6.934H506.483Z" transform="translate(-406.071 -442.386)" fill="#fff"/>
  <path id="Path_1332" data-name="Path 1332" d="M678.519,442.791,665.663,478.32h9.06l2.126-6.276h0l2.572-7.576,4.053-12.112,4.1,12.118,4.608,13.55h-.055l.1.295h9.16l-12.855-35.529Z" transform="translate(-461.498 -442.386)" fill="#fff"/>
</svg>
