<svg xmlns="http://www.w3.org/2000/svg" width="105.435" height="105.434" viewBox="0 0 105.435 105.434">
  <path id="Path_1333" data-name="Path 1333" d="M582.839,258.368h-49.2a28.116,28.116,0,0,0-28.116,28.116v49.2a27.977,27.977,0,0,0,4.189,14.762c4.231-6.745,11.6-16.066,13.2-18.373-1.373-9.993.781-28.446,20.7-34.408s26.152-.964,38.525-1.506,19.123-14.265,18.375-22.967c11.353,44.05-31.133,50.943-37.048,48.36,7,5.03,12.507,6.7,16.45,6.092-18.923,17.991-41.757,15.791-51.415,11.695q.51-.773,1.1-1.608a74.607,74.607,0,0,1,5.616-7.083c1.1-1.242,2.3-2.464,3.54-3.687,1.266-1.194,2.573-2.395,3.954-3.5l1.033-.836,1.061-.8c.7-.546,1.432-1.028,2.149-1.529s1.467-.94,2.187-1.406c.731-.447,1.478-.847,2.2-1.267.737-.391,1.475-.753,2.19-1.12.729-.339,1.453-.651,2.154-.966,1.421-.575,2.78-1.1,4.066-1.485.32-.1.634-.2.94-.3q.467-.121.912-.239l1.688-.437c1.074-.207,2.01-.415,2.788-.54l2.457-.338-2.481.138c-.789.061-1.742.2-2.843.316-.544.1-1.124.2-1.735.3l-.942.167c-.318.073-.643.15-.974.228-1.336.288-2.758.706-4.257,1.175-.738.264-1.5.521-2.277.81-.76.315-1.548.623-2.336.964-.775.368-1.577.718-2.367,1.118-.778.419-1.591.8-2.367,1.264s-1.582.894-2.347,1.4l-1.165.735-1.137.777c-1.524,1.034-2.977,2.166-4.393,3.3-1.392,1.162-2.743,2.334-3.99,3.532a78.4,78.4,0,0,0-6.459,6.916c-.232.28-.451.55-.668.817-1.787,2.66-9.686,12.649-13.055,18.337a28.044,28.044,0,0,0,20.9,9.313h49.2a28.116,28.116,0,0,0,28.116-28.116v-49.2A28.116,28.116,0,0,0,582.839,258.368Z" transform="translate(-505.52 -258.368)" fill="#fff"/>
</svg>
