<svg xmlns="http://www.w3.org/2000/svg" width="753.047" height="645.714" viewBox="0 0 753.047 645.714">
  <path id="Pattern" d="M823.5,618.131c6.368,74.141-51.146,191.049-156.568,195.693-105.422,4.622-158.54-37.951-328.258,12.834S150.591,1034.695,162.3,1119.84c-16.2,23.341-47.713,70.972-75.5,126.054l35.565,17.952c22.393-44.38,47.8-84.415,64.5-109.262,1.844-2.281,3.711-4.583,5.69-6.962a667.358,667.358,0,0,1,55.03-58.936c10.62-10.206,22.137-20.187,34-30.093,12.058-9.656,24.448-19.3,37.424-28.113l9.695-6.624,9.928-6.262c6.511-4.283,13.338-8.024,19.992-11.9,6.616-3.922,13.548-7.2,20.18-10.771,6.722-3.41,13.556-6.39,20.157-9.522,6.714-2.905,13.428-5.532,19.909-8.22,6.594-2.461,13.112-4.644,19.4-6.894,12.766-4,24.884-7.565,36.265-10.011,2.823-.662,5.6-1.317,8.3-1.942,2.732-.489,5.419-.963,8.024-1.415q7.824-1.365,14.791-2.574c9.378-1.031,17.5-2.168,24.229-2.695,13.458-.745,21.143-1.174,21.143-1.174s-7.61,1.047-20.94,2.884c-6.631,1.061-14.6,2.837-23.755,4.6q-6.774,1.761-14.384,3.719-3.794,1-7.775,2.04c-2.6.828-5.276,1.709-8.009,2.574-10.959,3.3-22.543,7.753-34.647,12.653-5.969,2.687-12.141,5.344-18.351,8.227-6.1,3.131-12.382,6.21-18.659,9.544-6.165,3.576-12.525,6.978-18.75,10.794-6.142,3.982-12.547,7.67-18.637,11.983-6.112,4.275-12.374,8.37-18.313,13.03l-9.04,6.782-8.807,7.12c-11.765,9.447-22.9,19.683-33.683,29.852-10.59,10.418-20.82,20.835-30.168,31.418a634.679,634.679,0,0,0-47.856,60.351q-5,7.1-9.356,13.707c82.3,34.895,276.856,53.652,438.091-99.649-33.593,5.217-80.493-9.055-140.159-51.913C558.227,1052.2,920.228,993.47,823.5,618.131Z" transform="translate(-86.8 -618.131)" fill="#58595b" opacity="0.05"/>
</svg>
